#!OML:ASF H:\Dans Jumps\Project 1\Capture day 1\Session 1\subject.ASF
:FULLY-SPECIFIED
:DEGREES
401
root 0.832882 15.8912 0.776852 -6.59423 0.889748 -0.762864
lowerback 6.26706 1.82847 -0.875654
upperback 4.65322 2.38982 1.7013
thorax 1.17528 1.15504 2.11665
lowerneck -11.7948 -1.81782 -2.39877
upperneck 35.1207 -2.75298 2.15006
head 13.9865 -1.19589 0.882041
rclavicle 1.03368e-014 -9.54166e-015
rhumerus -3.99685 -17.6016 -88.7717
rradius 21.3012
rwrist 39.0152
rhand -27.2469 -25.5254
rfingers 7.12502
rthumb -0.658518 -55.5041
lclavicle 1.03368e-014 -9.54166e-015
lhumerus -7.60382 5.9997 85.1358
lradius 18.8887
lwrist 12.343
lhand -28.4081 -10.0311
lfingers 7.12502
lthumb -1.78005 19.9412
rfemur -27.5426 -4.60262 18.4002
rtibia 59.3562
rfoot -21.683 -0.328144
rtoes 2.7034
lfemur -27.2791 6.29424 -19.1739
ltibia 56.6852
lfoot -17.9959 7.4082
ltoes -12.1722
402
root 0.840431 15.9404 0.836144 -6.06722 0.446206 -0.621854
lowerback 5.95776 1.81126 -1.00375
upperback 4.57758 2.36244 1.59343
thorax 1.26903 1.13916 2.08743
lowerneck -11.8188 -1.72446 -2.34817
upperneck 35.1588 -2.65969 2.2216
head 14.0064 -1.14132 0.915774
rclavicle 4.91992e-015 7.55382e-015
rhumerus -4.51523 -17.4407 -88.7084
rradius 21.261
rwrist 39.1756
rhand -27.1922 -25.4467
rfingers 7.12502
rthumb -0.605688 -55.4256
lclavicle 4.91992e-015 7.55382e-015
lhumerus -8.61667 7.27953 84.6971
lradius 18.3693
lwrist 11.2451
lhand -28.1378 -9.70395
lfingers 7.12502
lthumb -1.51898 20.2704
rfemur -27.6963 -4.44241 18.4304
rtibia 58.898
rfoot -21.5876 -0.54644
rtoes 3.14288
lfemur -27.1991 6.2865 -19.2974
ltibia 56.0772
lfoot -17.9152 7.68396
ltoes -12.0879
403
root 0.849185 16.0003 0.891621 -5.59559 0.0118652 -0.582282
lowerback 5.72479 1.77804 -1.00678
upperback 4.53007 2.31917 1.50412
thorax 1.35439 1.11784 2.00601
lowerneck -11.8324 -1.6327 -2.29238
upperneck 35.1021 -2.56231 2.27584
head 13.9804 -1.08717 0.941468
rclavicle -1.73937e-015 -5.56597e-015
rhumerus -5.07126 -17.3837 -88.6398
rradius 21.2666
rwrist 39.278
rhand -27.1914 -25.3493
rfingers 7.12502
rthumb -0.604905 -55.3282
lclavicle -1.73937e-015 -5.56597e-015
lhumerus -9.65291 8.5917 84.2216
lradius 17.9043
lwrist 10.056
lhand -28.0624 -9.47095
lfingers 7.12502
lthumb -1.44622 20.5039
rfemur -27.6815 -4.23304 18.5499
rtibia 58.2208
rfoot -21.4145 -0.76819
rtoes 3.58797
lfemur -27.0068 6.2638 -19.3049
ltibia 55.3407
lfoot -17.7825 7.8551
ltoes -11.9369
404
root 0.858977 16.0683 0.943476 -5.1801 -0.418952 -0.607653
lowerback 5.57343 1.73739 -0.926806
upperback 4.50309 2.26878 1.42823
thorax 1.41844 1.09482 1.88984
lowerneck -11.8282 -1.54045 -2.22419
upperneck 34.9724 -2.45573 2.30051
head 13.9164 -1.03176 0.953774
rclavicle -1.11816e-015 -3.37934e-015
rhumerus -5.67379 -17.4304 -88.551
rradius 21.3138
rwrist 39.3416
rhand -27.2281 -25.2407
rfingers 7.12502
rthumb -0.640402 -55.2195
lclavicle -1.11816e-015 -3.37934e-015
lhumerus -10.7224 9.88991 83.7171
lradius 17.5022
lwrist 8.92242
lhand -28.1651 -9.3364
lfingers 7.12502
lthumb -1.54538 20.6377
rfemur -27.5097 -3.98104 18.7137
rtibia 57.3509
rfoot -21.1753 -0.952961
rtoes 4.11521
lfemur -26.7055 6.24394 -19.2376
ltibia 54.4892
lfoot -17.6038 7.93726
ltoes -11.7361
